<?xml version="1.0" encoding="utf-8"?>
<!-- Generator: Adobe Illustrator 22.0.0, SVG Export Plug-In . SVG Version: 6.00 Build 0)  -->
<svg version="1.1" id="Layer_1" xmlns="http://www.w3.org/2000/svg" xmlns:xlink="http://www.w3.org/1999/xlink" x="0px" y="0px"
	 viewBox="0 0 781 208" style="enable-background:new 0 0 781 208;" xml:space="preserve">
<style type="text/css">
	.st0{fill:#01434F;}
	.st1{fill:#00AA81;}
	.st2{fill:#D3D3D3;}
</style>
<polygon class="st0" points="100.4,180.2 66.5,160.7 68.7,159.3 131.4,121.6 131.4,86.6 130.2,86.6 100.2,68.7 100.4,68 99.3,68 
	99.3,29.7 101.5,29.7 101.5,66.5 133.7,86.1 133.8,121.9 132.5,123.7 71.1,160.6 100.4,177.6 "/>
<g>
	<circle class="st0" cx="100" cy="176" r="12.2"/>
	<circle class="st1" cx="34.8" cy="102" r="12.2"/>
	<circle class="st0" cx="130" cy="85.8" r="12.2"/>
	<circle class="st0" cx="100" cy="28.9" r="9"/>
	<circle class="st0" cx="68.1" cy="159" r="9"/>
	<circle class="st1" cx="100" cy="103.2" r="9"/>
	<circle class="st1" cx="163.2" cy="140" r="9"/>
	<circle class="st1" cx="34.8" cy="66" r="9"/>
	<circle class="st1" cx="163.2" cy="67" r="9"/>
	<circle class="st1" cx="34.8" cy="140" r="6.2"/>
	<circle class="st1" cx="67.1" cy="85.8" r="6.2"/>
	<circle class="st1" cx="67.1" cy="48.3" r="6.2"/>
	<circle class="st1" cx="67.1" cy="121" r="6.2"/>
	<circle class="st0" cx="100" cy="141.6" r="6.2"/>
	<circle class="st0" cx="130.8" cy="121" r="6.2"/>
	<circle class="st1" cx="130" cy="159" r="6.2"/>
	<circle class="st1" cx="163.2" cy="102" r="6.2"/>
	<circle class="st0" cx="100" cy="66.4" r="6.2"/>
	<circle class="st1" cx="130.8" cy="46.9" r="6.2"/>
</g>
<g>
	<path class="st2" d="M87.9,96.7L77,90.5c-0.3,0.7-0.8,1.4-1.3,2L87,98.9C87.2,98.2,87.5,97.4,87.9,96.7z"/>
	<path class="st2" d="M66.5,110.2c0.2,0,0.4-0.1,0.6-0.1c0.6,0,1.2,0.1,1.8,0.2V96.6c-0.6,0.1-1.2,0.2-1.8,0.2
		c-0.2,0-0.4-0.1-0.6-0.1V110.2z"/>
	<path class="st2" d="M100,130.7c0.4,0,0.7,0.1,1.1,0.1v-14c-0.4,0-0.7,0.1-1.1,0.1s-0.9,0-1.3-0.1v14
		C99.1,130.8,99.5,130.7,100,130.7z"/>
	<path class="st2" d="M67.1,59.2l0.1,15.7c0.8,0,1.6,0.1,2.4,0.3l-0.1-16.3C68.7,59.1,67.9,59.2,67.1,59.2L67.1,59.2z"/>
	<path class="st2" d="M77.3,82.2l14.4-8.7c-0.5-0.6-1-1.3-1.4-2l-14,8.5C76.7,80.7,77.1,81.4,77.3,82.2z"/>
	<path class="st2" d="M113,98.9l4-2.3c-0.5-0.6-1-1.3-1.4-2l-3.5,2C112.4,97.4,112.7,98.1,113,98.9z"/>
	<path class="st2" d="M131.1,69c0.8,0.1,1.6,0.1,2.4,0.3l0.1-11.9c-0.8,0.2-1.6,0.3-2.4,0.4L131.1,69z"/>
	<path class="st2" d="M145.5,92.4c-0.3,0.7-0.7,1.4-1.1,2.1l8.3,4.5c0.2-0.8,0.5-1.5,0.9-2.2L145.5,92.4z"/>
	<path class="st2" d="M163.1,80.7v10.4h0.1c0.8,0,1.6,0.1,2.3,0.3V80.5C164.8,80.6,164,80.7,163.1,80.7
		C163.2,80.7,163.2,80.7,163.1,80.7z"/>
	<path class="st2" d="M57.6,91.1l-7.4,4c0.3,0.7,0.6,1.5,0.8,2.3l8-4.3C58.4,92.4,58,91.8,57.6,91.1z"/>
	<path class="st2" d="M108.6,148.3l11.3,6.8c0.3-0.7,0.7-1.5,1.1-2.1l-11.1-6.7C109.5,147,109.1,147.6,108.6,148.3z"/>
	<path class="st2" d="M77.3,44.4l12-7c-0.5-0.6-0.9-1.3-1.3-2l-11.8,6.8C76.6,42.9,77,43.6,77.3,44.4z"/>
	<path class="st2" d="M83.9,170.8l-5.3-3l-0.1,0.1l5.3,3.1C83.9,171,83.9,170.9,83.9,170.8z"/>
	<path class="st2" d="M121.1,165.3l-5.9,3.4c0.3,0.7,0.7,1.5,0.9,2.2l6.6-3.8C122.1,166.6,121.5,166,121.1,165.3z"/>
	<path class="st2" d="M151.8,147.5l-12,6.9c0.3,0.7,0.6,1.5,0.8,2.3l12.7-7.3C152.8,148.8,152.2,148.2,151.8,147.5z"/>
	<path class="st2" d="M56.2,152.3l-12-6.9c-0.4,0.7-0.9,1.3-1.4,1.9l12.4,7.2C55.5,153.7,55.8,153,56.2,152.3z"/>
	<path class="st2" d="M163.2,112.9L163.2,112.9l-0.1,13.3h0.1c0.8,0,1.5,0.1,2.3,0.2v-13.8C164.8,112.8,164,112.9,163.2,112.9z"/>
	<path class="st2" d="M34.8,129c0.6,0,1.2,0.1,1.9,0.2v-10.5c-0.6,0.1-1.2,0.1-1.9,0.1c-0.2,0-0.3,0-0.5,0V129
		C34.4,129.1,34.6,129,34.8,129z"/>
	<path class="st2" d="M139,54l12,6.9c0.4-0.7,0.8-1.4,1.3-2.1L140.4,52C140,52.7,139.5,53.4,139,54z"/>
	<path class="st2" d="M139.9,128.4l12,6.9c0.4-0.7,0.8-1.4,1.3-2.1l-11.9-6.9C140.9,127.1,140.5,127.8,139.9,128.4z"/>
	<path class="st2" d="M91.3,135.1l-14.7-8.8c-0.4,0.7-0.8,1.4-1.4,2l14.8,8.9C90.4,136.4,90.8,135.7,91.3,135.1z"/>
	<path class="st2" d="M110.6,37.5l9.9,5.7c0.3-0.8,0.6-1.5,1-2.1l-9.6-5.6C111.6,36.2,111.1,36.9,110.6,37.5z"/>
	<path class="st2" d="M34.8,85.1c0.7,0,1.4,0.1,2.1,0.2l0.1-5.7c-0.7,0.1-1.5,0.2-2.2,0.2c-0.2,0-0.3,0-0.5,0v5.4
		C34.4,85.1,34.6,85.1,34.8,85.1z"/>
	<path class="st2" d="M47.9,61.9L59,55.5c-0.6-0.7-1.2-1.5-1.6-2.4l-10.7,6.2C47.2,60.1,47.6,61,47.9,61.9z"/>
	<path class="st2" d="M46.7,136.2l12-7c-0.5-0.6-0.9-1.3-1.3-2L45.6,134C46.1,134.8,46.4,135.5,46.7,136.2z"/>
</g>
<g>
	<path class="st1" d="M197.1,63.2c0-2.9,2.4-5.3,5.3-5.3h25c21.2,0,32.7,8.8,32.7,26.2c0,16.4-10.7,26.1-30.2,26.4l29,34.2
		c0.6,0.7-1.8,4.5-5.8,4.5c-1.8,0-3.8-0.8-5.9-3.4l-29.5-35.4h-11.4v34.4c0,2.4-1.4,4.4-4.2,4.4H201c-2.7,0-4.1-1.4-4.1-4.4V63.2
		H197.1z M228.2,102.3c15,0,22-7.2,22-18c0-11.8-7.6-18-22.6-18h-21.2v35.9L228.2,102.3L228.2,102.3z"/>
	<path class="st1" d="M268.9,85.6c0-3.4,1.7-4.4,4.1-4.4h1c2.4,0,4.1,1,4.1,4.4v59.2c0,3.4-1.7,4.4-4.1,4.4h-1c-2.4,0-4.1-1-4.1-4.4
		V85.6z"/>
	<path class="st1" d="M302.9,140.8c-1.7-1.4-2.9-3.4-2.9-6.5c0-2.4,1.3-4.8,2.9-6.6c-10.1-3.5-16.7-12.1-16.7-22.3
		c0-13.9,11.5-25.3,27.1-25.3c6.3,0,12.2,2,16.8,5.2l4.6-7.4c2-2.8,3.5-4.2,6.5-4.2c3.8,0,5.5,3.8,5.2,4.1l-11.1,12.3
		c3.4,4.1,5.5,9.3,5.5,14.7c0,13.8-11.8,24.6-27.5,24.6c-1.3,0-2.5,0-3.6-0.1c-0.8,1.3-1,2.2-1,3.4c0,4.6,6.3,5.1,18.5,8.1
		c9.5,2.4,19.6,6.9,19.6,17.5c0,12.5-12.6,19.9-34.1,19.9c-21.3,0-31.4-5.9-31.4-18.2C281.3,149.9,290.7,143.2,302.9,140.8z
		 M313,170.8c15.3,0,24.7-4.3,24.7-12.2c0-8.1-12.6-9.8-23.3-12.5c-12.8,0.7-24.3,5.5-24.3,13.9C290.1,167,298,170.8,313,170.8z
		 M331.4,105.1c0-10.1-7.3-17.4-18.2-17.4c-10.4,0-17.7,7-17.7,17.4c0,10.1,7.4,17.1,18,17.1C324.1,122.3,331.4,115.3,331.4,105.1z"
		/>
	<path class="st1" d="M349.6,54.1c0-0.3,1.4-1,3.1-1c3.1,0,6,1.5,6,8.8v30.6c4.6-7.2,12.1-12.3,22.6-12.3
		c17.7,0,26.5,11.8,26.5,29.5v35.2c0,3.4-1.7,4.4-4.1,4.4h-1c-2.4,0-4.1-1-4.1-4.4v-34.7c0-13.5-6.7-21.5-18-21.5
		c-13.2,0-22,9-22,22.9v33.3c0,3.4-1.7,4.4-4.1,4.4h-1c-2.4,0-4.1-1-4.1-4.4V54.1H349.6z"/>
	<path class="st1" d="M421.9,90h-6.2c-3.4,0-4.4-1.3-4.4-3.6v-0.8c0-2.4,1-3.6,4.4-3.6h6.2V70.2c0-3.4,1.7-4.4,4.1-4.4h1
		c2.4,0,3.9,1,3.9,4.4v11.6h17.8c3.4,0,4.4,1.3,4.4,3.6v0.8c0,2.4-1,3.6-4.4,3.6h-17.8v38c0,9.8,2.5,14.5,10,14.5
		c4.6,0,8-2,10.4-4.9c0.3-0.3,3.1,1,3.1,4.5c0,3.8-4.9,8.3-13.8,8.3c-13,0-18.7-7.4-18.7-21.3V90z"/>
	<path class="st0" d="M460.6,63.3c0-3.5,2.8-6,6.9-6h2.2c4.9,0,6.2,2.2,8.3,7.2l23.9,52.9l24-52.9c2.1-4.9,3.4-7.2,8.3-7.2h2
		c4.1,0,6.9,2.5,6.9,6v81.5c0,2.9-1.3,4.4-4.1,4.4h-1.1c-2.7,0-3.9-1.4-3.9-4.4V68.2L510,120c-1.7,3.8-3.6,6-8.3,6
		c-4.8,0-6.6-2.2-8.3-6l-23.7-51.8v76.6c0,2.9-1.1,4.4-3.9,4.4h-1.4c-2.7,0-3.8-1.4-3.8-4.4L460.6,63.3L460.6,63.3z"/>
	<path class="st0" d="M585.3,80.2c18.8,0,31.1,13.3,31.1,33.7v0.8c0,2.5-1,3.1-3.8,3.1h-51.9c0.7,14.3,11.1,24.4,25.4,24.4
		c13.1,0,18.9-5.6,22.9-11.9c0.3-0.4,5.3,0.8,5.3,5.2c0,4.6-10.1,14.9-28.2,14.9c-20.3,0-34.5-14.3-34.5-34.8
		C551.6,95.2,565.9,80.2,585.3,80.2z M606.8,109.9c-0.8-13.2-9-21.7-21.5-21.7c-12.6,0-22.3,9-24.3,21.7
		C561,109.9,606.8,109.9,606.8,109.9z"/>
	<path class="st0" d="M623.5,131.8c4.5,6.2,11.8,10.8,22.9,10.8c11.1,0,17.3-4.5,17.3-11.2c0-8-7-9.7-19.6-12.3
		c-10.4-2.2-23.4-5.2-23.4-18.7c0-11.9,10.1-20.2,25.5-20.2c16.3,0,24.7,7.7,24.7,12.8c0,3.5-4.8,5.2-5.1,4.8
		C662,92,655.3,88,646.2,88c-10.9,0-16.8,4.6-16.8,11.2c0,7.2,6.3,9.1,18.7,11.8c10.8,2.4,24.6,5.3,24.6,19.1
		c0,12.3-10.1,20.3-26.4,20.3c-17.8,0-27.5-8.6-27.5-13.6C618.5,132.9,623.2,131.5,623.5,131.8z"/>
	<path class="st0" d="M680.3,54.1c0-0.3,1.4-1,3.1-1c3.1,0,6,1.5,6,8.8v30.6c4.6-7.2,12.1-12.3,22.6-12.3
		c17.7,0,26.5,11.8,26.5,29.5v35.2c0,3.4-1.7,4.4-4.1,4.4h-1c-2.4,0-4.1-1-4.1-4.4v-34.7c0-13.5-6.7-21.5-18-21.5
		c-13.2,0-22,9-22,22.9v33.3c0,3.4-1.7,4.4-4.1,4.4h-1c-2.4,0-4.1-1-4.1-4.4V54.1H680.3z"/>
</g>
<g>
	<path class="st0" d="M743.1,54.1v11.4H742V54.1h-3.4V53h8v1.1H743.1z"/>
	<path class="st0" d="M748.2,65.6l0.9-12.5h1.6l1.6,4.6c1,2.7,2.2,6.3,2.2,6.3s1.3-3.5,2.3-6.3l1.7-4.6h1.6l1.1,12.5H760l-0.4-4.9
		c-0.3-3-0.5-6-0.5-6s-1.1,3.1-2.2,6l-1.7,4.6h-1.3l-1.6-4.6c-1.1-3.1-2.1-5.9-2.1-5.9s-0.2,2.8-0.4,5.9l-0.4,4.9
		C749.4,65.6,748.2,65.6,748.2,65.6z"/>
</g>
</svg>
